#!OML:ASF H:\Dans Jumps\Project 1\Capture day 1\Session 1\subject.ASF
:FULLY-SPECIFIED
:DEGREES
255
root 0.290365 17.1299 -3.4766 5.01181 -0.0452616 -0.61338
lowerback 3.97796 0.922081 -0.707829
upperback 4.37804 1.19924 0.891708
thorax 2.23526 0.56614 1.28865
lowerneck -11.8626 -1.14759 -2.39492
upperneck 33.7082 -2.02446 2.92132
head 13.3591 -0.795783 1.27955
rclavicle -5.11871e-015 -2.5842e-015
rhumerus -25.1486 -19.3903 -79.021
rradius 22.5234
rwrist 37.8792
rhand -20.1131 -25.2373
rfingers 7.12502
rthumb 6.23064 -55.1257
lclavicle -5.11871e-015 -2.5842e-015
lhumerus -30.7645 0.586844 89.1282
lradius 14.8183
lwrist 5.69737
lhand -22.9483 -2.35486
lfingers 7.12502
lthumb 3.49304 27.5963
rfemur -26.5231 -1.88594 18.2639
rtibia 40.085
rfoot -17.2892 2.5993
rtoes 12.3088
lfemur -25.4644 5.89785 -18.0623
ltibia 38.1195
lfoot -12.7061 7.83315
ltoes 4.22939
256
root 0.295327 17.1466 -3.46376 5.15371 -0.00833008 -0.577278
lowerback 4.04307 0.926231 -0.766502
upperback 4.42248 1.20338 0.872541
thorax 2.24402 0.566652 1.30114
lowerneck -11.9058 -1.15181 -2.38428
upperneck 33.7519 -2.03192 2.91834
head 13.3877 -0.79746 1.27594
rclavicle 6.65929e-015 -2.38542e-015
rhumerus -24.7666 -19.8411 -78.8306
rradius 22.1351
rwrist 38.576
rhand -20.1362 -25.286
rfingers 7.12502
rthumb 6.20834 -55.175
lclavicle 6.65929e-015 -2.38542e-015
lhumerus -30.3586 0.702483 88.975
lradius 14.713
lwrist 5.4445
lhand -23.3612 -2.59525
lfingers 7.12502
lthumb 3.09428 27.362
rfemur -26.4499 -1.90193 18.214
rtibia 39.7618
rfoot -17.1432 2.5811
rtoes 12.5297
lfemur -25.3963 6.09887 -18.1562
ltibia 37.7553
lfoot -12.6545 7.52822
ltoes 4.15583
257
root 0.300023 17.1614 -3.45001 5.29677 0.0388872 -0.546953
lowerback 4.07891 0.925791 -0.823006
upperback 4.46781 1.20148 0.859275
thorax 2.27016 0.563982 1.31913
lowerneck -11.9438 -1.15433 -2.37746
upperneck 33.8008 -2.03554 2.91375
head 13.4174 -0.798184 1.27302
rclavicle 6.85807e-015 0
rhumerus -24.3642 -20.3806 -78.6258
rradius 21.7384
rwrist 39.3372
rhand -20.1515 -25.3392
rfingers 7.12502
rthumb 6.19356 -55.2287
lclavicle 6.85807e-015 0
lhumerus -29.9408 0.899438 88.7981
lradius 14.5907
lwrist 5.01328
lhand -23.8393 -2.89057
lfingers 7.12502
lthumb 2.63255 27.0729
rfemur -26.3932 -1.90095 18.1741
rtibia 39.4712
rfoot -17.0204 2.49234
rtoes 12.5921
lfemur -25.3461 6.26187 -18.2381
ltibia 37.429
lfoot -12.6171 7.25014
ltoes 4.05444
258
root 0.304581 17.1743 -3.43545 5.45006 0.0941366 -0.5307
lowerback 4.08229 0.921098 -0.868574
upperback 4.50614 1.19425 0.85442
thorax 2.30741 0.558747 1.34024
lowerneck -11.9644 -1.15474 -2.37988
upperneck 33.8517 -2.03547 2.9135
head 13.4443 -0.798044 1.27405
rclavicle -1.49585e-014 -4.96962e-015
rhumerus -23.9567 -20.9965 -78.4091
rradius 21.3468
rwrist 40.1349
rhand -20.1607 -25.399
rfingers 7.12502
rthumb 6.18464 -55.2887
lclavicle -1.49585e-014 -4.96962e-015
lhumerus -29.5299 1.15499 88.6101
lradius 14.4691
lwrist 4.46082
lhand -24.3738 -3.22851
lfingers 7.12502
lthumb 2.11633 26.7407
rfemur -26.361 -1.88282 18.1515
rtibia 39.2085
rfoot -16.9166 2.35172
rtoes 12.542
lfemur -25.3217 6.39138 -18.302
ltibia 37.1338
lfoot -12.587 7.00461
ltoes 3.91673
259
root 0.309335 17.186 -3.41995 5.6107 0.15912 -0.536051
lowerback 4.05488 0.911727 -0.890362
upperback 4.5375 1.1814 0.858618
thorax 2.35509 0.551164 1.35789
lowerneck -11.9786 -1.15319 -2.37614
upperneck 33.9123 -2.03061 2.90174
head 13.4736 -0.796565 1.27029
rclavicle 5.86415e-015 -3.77691e-015
rhumerus -23.551 -21.6833 -78.1849
rradius 20.9686
rwrist 40.9473
rhand -20.1735 -25.4652
rfingers 7.12502
rthumb 6.17232 -55.3553
lclavicle 5.86415e-015 -3.77691e-015
lhumerus -29.1305 1.43703 88.4264
lradius 14.3588
lwrist 3.86525
lhand -24.9398 -3.59535
lfingers 7.12502
lthumb 1.5697 26.3786
rfemur -26.3481 -1.85932 18.1557
rtibia 38.9656
rfoot -16.8246 2.16368
rtoes 12.3205
lfemur -25.3171 6.49 -18.3411
ltibia 36.8636
lfoot -12.5612 6.79171
ltoes 3.74519
260
root 0.31461 17.1968 -3.40353 5.77487 0.231849 -0.567222
lowerback 4.00086 0.897582 -0.879867
upperback 4.5634 1.1629 0.872078
thorax 2.41258 0.541479 1.36747
lowerneck -11.9744 -1.15032 -2.37898
upperneck 33.9663 -2.02271 2.89133
head 13.4959 -0.794595 1.26862
rclavicle 9.24349e-015 8.34896e-015
rhumerus -23.1566 -22.3943 -77.9674
rradius 20.6272
rwrist 41.7157
rhand -20.2 -25.5338
rfingers 7.12502
rthumb 6.14672 -55.4246
lclavicle 9.24349e-015 8.34896e-015
lhumerus -28.7449 1.72983 88.2552
lradius 14.2726
lwrist 3.29478
lhand -25.5089 -3.9508
lfingers 7.12502
lthumb 1.02005 26.0265
rfemur -26.3436 -1.83291 18.1881
rtibia 38.7339
rfoot -16.7412 1.9546
rtoes 12.0025
lfemur -25.3269 6.55956 -18.351
ltibia 36.6143
lfoot -12.538 6.61028
ltoes 3.55446
261
root 0.320658 17.2073 -3.38643 5.93855 0.304423 -0.615787
lowerback 3.93067 0.881542 -0.844253
upperback 4.58092 1.14234 0.892172
thorax 2.47085 0.531416 1.36997
lowerneck -11.9593 -1.14526 -2.38111
upperneck 34.0214 -2.00938 2.87321
head 13.5161 -0.791266 1.2646
rclavicle 8.44835e-016 -5.76476e-015
rhumerus -22.7817 -23.1034 -77.7604
rradius 20.3285
rwrist 42.4121
rhand -20.2412 -25.5992
rfingers 7.12502
rthumb 6.10695 -55.4911
lclavicle 8.44835e-016 -5.76476e-015
lhumerus -28.385 1.99459 88.1138
lradius 14.2278
lwrist 2.84135
lhand -26.044 -4.26463
lfingers 7.12502
lthumb 0.50323 25.7145
rfemur -26.3393 -1.80157 18.2356
rtibia 38.5046
rfoot -16.6589 1.7496
rtoes 11.6677
lfemur -25.3427 6.6022 -18.3412
ltibia 36.38
lfoot -12.5132 6.46236
ltoes 3.35455
262
root 0.327663 17.218 -3.36896 6.09691 0.370856 -0.677188
lowerback 3.85371 0.86557 -0.784137
upperback 4.5911 1.12222 0.915385
thorax 2.52565 0.522316 1.36192
lowerneck -11.9358 -1.1393 -2.38383
upperneck 34.0783 -1.99267 2.849
head 13.5351 -0.787416 1.2588
rclavicle 8.49804e-015 -7.95139e-016
rhumerus -22.4307 -23.7753 -77.5741
rradius 20.0828
rwrist 42.9985
rhand -20.2964 -25.6591
rfingers 7.12502
rthumb 6.05368 -55.5526
lclavicle 8.49804e-015 -7.95139e-016
lhumerus -28.0524 2.20394 88.0096
lradius 14.2338
lwrist 2.56403
lhand -26.5199 -4.5255
lfingers 7.12502
lthumb 0.0436538 25.4542
rfemur -26.3261 -1.76586 18.291
rtibia 38.2712
rfoot -16.5745 1.56696
rtoes 11.3798
lfemur -25.3551 6.62143 -18.3167
ltibia 36.1551
lfoot -12.4862 6.34845
ltoes 3.15047
